<!-- icon666.com - MILLIONS vector ICONS FREE --><svg fill="none" viewBox="0 0 24 24" xmlns="http://www.w3.org/2000/svg"><g clip-rule="evenodd" fill="rgb(0,0,0)" fill-rule="evenodd"><path d="m8 9.75c-2.89949 0-5.25 2.3505-5.25 5.25s2.35051 5.25 5.25 5.25h8c2.8995 0 5.25-2.3505 5.25-5.25s-2.3505-5.25-5.25-5.25zm-6.75 5.25c0-3.7279 3.02208-6.75 6.75-6.75h8c3.7279 0 6.75 3.0221 6.75 6.75s-3.0221 6.75-6.75 6.75h-8c-3.72792 0-6.75-3.0221-6.75-6.75z" fill="rgb(0,0,0)" style="fill: rgb(255, 103, 1);"></path><path d="m8 12.25c.41421 0 .75.3358.75.75v4c0 .4142-.33579.75-.75.75s-.75-.3358-.75-.75v-4c0-.4142.33579-.75.75-.75z" fill="rgb(0,0,0)" style="fill: rgb(255, 103, 1);"></path><path d="m5.25 15c0-.4142.33579-.75.75-.75h4c.4142 0 .75.3358.75.75s-.3358.75-.75.75h-4c-.41421 0-.75-.3358-.75-.75z" fill="rgb(0,0,0)" style="fill: rgb(255, 103, 1);"></path><path d="m16 1.25c.4142 0 .75.33579.75.75v2.85714c0 .41422-.3358.75-.75.75h-3.25v2.39286c0 .41421-.3358.75-.75.75s-.75-.33579-.75-.75v-3.14286c0-.41421.3358-.75.75-.75h3.25v-2.10714c0-.41421.3358-.75.75-.75z" fill="rgb(0,0,0)" style="fill: rgb(255, 103, 1);"></path><path d="m16 13.75c-.6904 0-1.25.5596-1.25 1.25s.5596 1.25 1.25 1.25 1.25-.5596 1.25-1.25-.5596-1.25-1.25-1.25zm-2.75 1.25c0-1.5188 1.2312-2.75 2.75-2.75s2.75 1.2312 2.75 2.75-1.2312 2.75-2.75 2.75-2.75-1.2312-2.75-2.75z" fill="rgb(0,0,0)" style="fill: rgb(255, 103, 1);"></path></g></svg>