<!-- icon666.com - MILLIONS vector ICONS FREE --><svg viewBox="0 -16 512 512" xmlns="http://www.w3.org/2000/svg"><path d="m134.425781 309.578125h-30v35.039063h-35.039062v30h35.039062v35.039062h30v-35.039062h35.039063v-30h-35.039063zm0 0"></path><path d="m342.535156 362.050781h30.023438v30h-30.023438zm0 0"></path><path d="m412.589844 362.050781h30.023437v30h-30.023437zm0 0"></path><path d="m377.5625 302.003906h30.023438v30h-30.023438zm0 0"></path><path d="m210.964844 302.003906h30.023437v30h-30.023437zm0 0"></path><path d="m271.011719 302.003906h30.023437v30h-30.023437zm0 0"></path><path d="m481.976562 280.527344v-280.527344h-451.953124v280.53125c-18.667969 21.078125-30.023438 48.78125-30.023438 79.085938 0 65.851562 53.574219 119.425781 119.425781 119.425781 41.863281 0 80.046875-21.605469 101.738281-56.964844h69.671876c21.691406 35.359375 59.875 56.964844 101.738281 56.964844 65.851562 0 119.425781-53.574219 119.425781-119.425781 0-30.304688-11.355469-58.007813-30.023438-79.089844zm-30-24.488282c-17.503906-10.078124-37.792968-15.847656-59.402343-15.847656h-121.574219v-210.191406h180.976562zm-210.976562-226.039062v210.191406h-121.574219c-21.609375 0-41.894531 5.769532-59.402343 15.847656v-226.039062zm151.574219 419.042969c-33.683594 0-64.195313-18.703125-79.625-48.808594l-4.179688-8.160156h-105.539062l-4.183594 8.160156c-15.429687 30.105469-45.9375 48.808594-79.621094 48.808594-49.308593 0-89.425781-40.117188-89.425781-89.425781 0-49.308594 40.117188-89.425782 89.425781-89.425782h273.148438c49.308593 0 89.425781 40.117188 89.425781 89.425782 0 49.308593-40.117188 89.425781-89.425781 89.425781zm0 0"></path><path d="m301.035156 180.144531h120.90625v30h-120.90625zm0 0"></path><path d="m301.035156 120.097656h120.90625v30h-120.90625zm0 0"></path><path d="m301.035156 60.046875h120.90625v30h-120.90625zm0 0"></path><path d="m90.058594 180.144531h120.90625v30h-120.90625zm0 0"></path><path d="m90.058594 120.097656h120.90625v30h-120.90625zm0 0"></path><path d="m90.058594 60.046875h120.90625v30h-120.90625zm0 0"></path></svg>