<svg width="1208" height="320" xmlns="http://www.w3.org/2000/svg" fill="none">

 <g>
  <title>Слой 1</title>
  <path stroke="null" id="svg_1" fill="black" d="m251.4589,320c59.46532,0 114.11122,-13.134 157.16031,-35.093c53.38232,21.959 121.14234,35.093 194.88078,35.093c73.73844,0 141.49846,-13.134 194.88078,-35.093c43.04909,21.959 97.69499,35.093 157.16031,35.093c138.87701,0 251.4589,-71.634 251.4589,-160c0,-88.3656 -112.5819,-160 -251.4589,-160c-59.46532,0 -114.11122,13.1344 -157.16031,35.0926c-53.38232,-21.9582 -121.14234,-35.0926 -194.88078,-35.0926c-73.73844,0 -141.49846,13.1344 -194.88078,35.0926c-43.04909,-21.9582 -97.69499,-35.0926 -157.16031,-35.0926c-138.87718,0 -251.4589,71.6344 -251.4589,160c0,88.366 112.58172,160 251.4589,160z"/>
 </g>
</svg>