<?xml version="1.0" encoding="UTF-8"?>
<svg xmlns="http://www.w3.org/2000/svg" xmlns:xlink="http://www.w3.org/1999/xlink" width="472px" height="311px" viewBox="0 0 472 311" version="1.1">
<g id="surface1">
<path style=" stroke:none;fill-rule:nonzero;fill:rgb(0%,0%,0%);fill-opacity:1;" d="M 0.5 97.539062 C 0.5 43.671875 38.535156 0 84.953125 0 C 112.496094 0 137.085938 15.371094 152.53125 39.128906 C 174.148438 14.902344 203.574219 0 236 0 C 268.382812 0 297.773438 14.863281 319.382812 39.03125 C 334.71875 15.328125 359.136719 0 386.636719 0 L 471.5 0 L 471.5 213.460938 C 471.5 267.328125 433.464844 311 387.046875 311 C 359.503906 311 334.914062 295.628906 319.46875 271.871094 C 297.851562 296.097656 268.425781 311 236 311 C 203.617188 311 174.226562 296.136719 152.617188 271.96875 C 137.28125 295.671875 112.863281 311 85.363281 311 L 0.5 311 Z M 0.5 97.539062 "/>
</g>
</svg>
