<svg width="228" height="273" viewBox="0 0 228 273" fill="none" xmlns="http://www.w3.org/2000/svg">
<g opacity="0.62" filter="url(#filter0_f_4028_2397)">
<path d="M108.204 36.5595L65.7272 55.308L135.617 74.0348L108.204 36.5595Z" fill="#FE6D44"/>
<path fill-rule="evenodd" clip-rule="evenodd" d="M130.512 69.6535L128.864 69.212C128.537 69.1242 128.2 69.3186 128.112 69.6461C128.024 69.9736 128.219 70.3102 128.546 70.3979L130.194 70.8395C130.522 70.9273 130.858 70.7329 130.946 70.4054C131.034 70.0779 130.84 69.7413 130.512 69.6535ZM123.92 67.8872L120.624 67.004C120.296 66.9163 119.96 67.1106 119.872 67.4381C119.784 67.7656 119.979 68.1022 120.306 68.19L123.602 69.0732C123.93 69.1609 124.266 68.9666 124.354 68.6391C124.442 68.3116 124.247 67.9749 123.92 67.8872ZM115.68 65.6793L112.384 64.7961C112.056 64.7083 111.72 64.9027 111.632 65.2302C111.544 65.5577 111.738 65.8943 112.066 65.982L115.362 66.8652C115.69 66.953 116.026 66.7586 116.114 66.4311C116.202 66.1036 116.007 65.767 115.68 65.6793ZM107.44 63.4713L104.144 62.5881C103.816 62.5004 103.479 62.6947 103.392 63.0222C103.304 63.3497 103.498 63.6863 103.826 63.7741L107.122 64.6573C107.449 64.745 107.786 64.5507 107.874 64.2232C107.962 63.8957 107.767 63.5591 107.44 63.4713ZM99.1995 61.2634L95.9035 60.3802C95.576 60.2924 95.2393 60.4868 95.1516 60.8143C95.0638 61.1418 95.2582 61.4784 95.5857 61.5662L98.8817 62.4493C99.2092 62.5371 99.5459 62.3427 99.6336 62.0152C99.7214 61.6877 99.527 61.3511 99.1995 61.2634ZM90.9594 59.0554L87.6633 58.1723C87.3358 58.0845 86.9992 58.2788 86.9114 58.6063C86.8237 58.9338 87.018 59.2705 87.3455 59.3582L90.6416 60.2414C90.9691 60.3291 91.3057 60.1348 91.3935 59.8073C91.4812 59.4798 91.2869 59.1432 90.9594 59.0554ZM82.7192 56.8475L79.4232 55.9643C79.0957 55.8766 78.759 56.0709 78.6713 56.3984C78.5835 56.7259 78.7779 57.0625 79.1054 57.1503L82.4015 58.0335C82.7289 58.1212 83.0656 57.9269 83.1533 57.5994C83.2411 57.2719 83.0467 56.9352 82.7192 56.8475ZM74.4791 54.6395L72.8311 54.198C72.5036 54.1102 72.1669 54.3046 72.0792 54.632C71.9914 54.9595 72.1858 55.2962 72.5133 55.3839L74.1613 55.8255C74.4888 55.9133 74.8254 55.7189 74.9132 55.3914C75.0009 55.0639 74.8066 54.7273 74.4791 54.6395Z" fill="#1B1F21"/>
<path d="M107.039 41.6883L135.616 74.0356L147.961 27.9633L107.039 41.6883Z" fill="#FE6D44"/>
<path d="M107.039 41.6883L135.616 74.0356L147.961 27.9633L107.039 41.6883Z" fill="#FCFAF9" fill-opacity="0.12"/>
<path fill-rule="evenodd" clip-rule="evenodd" d="M134.747 69.3227C134.969 69.2721 135.145 69.1029 135.204 68.883L135.711 66.9915C135.799 66.664 135.604 66.3274 135.277 66.2396C134.949 66.1519 134.613 66.3462 134.525 66.6737L134.319 67.4429L133.826 66.87C133.605 66.6129 133.217 66.5837 132.96 66.8048C132.703 67.0259 132.674 67.4135 132.895 67.6706L134.146 69.1244C134.294 69.297 134.526 69.3733 134.747 69.3227ZM135.973 63.6426C136.3 63.7303 136.637 63.536 136.724 63.2085L137.738 59.4255C137.826 59.098 137.631 58.7614 137.304 58.6736C136.976 58.5859 136.64 58.7802 136.552 59.1077L135.538 62.8907C135.451 63.2182 135.645 63.5548 135.973 63.6426ZM138 56.0766C138.327 56.1643 138.664 55.97 138.752 55.6425L139.765 51.8594C139.853 51.5319 139.659 51.1953 139.331 51.1076C139.004 51.0198 138.667 51.2142 138.579 51.5417L137.566 55.3247C137.478 55.6522 137.672 55.9888 138 56.0766ZM140.027 48.5105C140.355 48.5983 140.691 48.4039 140.779 48.0764L141.793 44.2934C141.88 43.9659 141.686 43.6293 141.359 43.5415C141.031 43.4538 140.694 43.6481 140.607 43.9756L139.593 47.7586C139.505 48.0861 139.7 48.4228 140.027 48.5105ZM142.054 40.9445C142.382 41.0322 142.719 40.8379 142.806 40.5104L143.313 38.6189C143.401 38.2914 143.207 37.9548 142.879 37.867C142.552 37.7793 142.215 37.9736 142.127 38.3011L141.62 40.1926C141.533 40.5201 141.727 40.8567 142.054 40.9445ZM131.26 64.828C131.517 64.6069 131.546 64.2193 131.325 63.9622L128.825 61.0545C128.603 60.7974 128.216 60.7682 127.959 60.9893C127.702 61.2104 127.673 61.598 127.894 61.8551L130.394 64.7628C130.615 65.0199 131.003 65.049 131.26 64.828ZM126.259 59.0125C126.516 58.7914 126.545 58.4038 126.324 58.1467L123.823 55.239C123.602 54.9819 123.214 54.9527 122.957 55.1738C122.7 55.3949 122.671 55.7825 122.892 56.0396L125.393 58.9473C125.614 59.2044 126.002 59.2335 126.259 59.0125ZM121.257 53.197C121.514 52.9759 121.543 52.5883 121.322 52.3312L118.821 49.4235C118.6 49.1664 118.213 49.1372 117.956 49.3583C117.699 49.5794 117.67 49.967 117.891 50.2241L120.391 53.1318C120.612 53.3889 121 53.418 121.257 53.197ZM116.256 47.3815C116.513 47.1604 116.542 46.7728 116.321 46.5157L115.07 45.0618C114.849 44.8048 114.462 44.7756 114.205 44.9967C113.948 45.2178 113.918 45.6054 114.139 45.8624L115.39 47.3163C115.611 47.5734 115.999 47.6025 116.256 47.3815Z" fill="black"/>
<path d="M106.649 41.583L65.7272 55.308L78.0722 9.23572L106.649 41.583Z" fill="#FE6D44"/>
<path d="M106.649 41.583L65.7272 55.308L78.0722 9.23572L106.649 41.583Z" fill="#FCFAF9" fill-opacity="0.12"/>
<path fill-rule="evenodd" clip-rule="evenodd" d="M79.2487 13.9022C79.5764 13.9895 79.7712 14.3259 79.6839 14.6535L79.1962 16.4841C79.1089 16.8117 78.7726 17.0065 78.4449 16.9193C78.1173 16.832 77.9225 16.4956 78.0098 16.168L78.4975 14.3374C78.5848 14.0098 78.9211 13.8149 79.2487 13.9022ZM77.7856 19.3941C78.1132 19.4814 78.3081 19.8177 78.2208 20.1453L77.2454 23.8065C77.1581 24.1342 76.8217 24.329 76.4941 24.2417C76.1665 24.1544 75.9717 23.8181 76.0589 23.4905L77.0344 19.8292C77.1216 19.5016 77.458 19.3068 77.7856 19.3941ZM75.8348 26.7165C76.1624 26.8038 76.3572 27.1401 76.2699 27.4678L75.2945 31.129C75.2072 31.4566 74.8709 31.6514 74.5433 31.5642C74.2157 31.4769 74.0208 31.1405 74.1081 30.8129L75.0835 27.1517C75.1708 26.8241 75.5072 26.6292 75.8348 26.7165ZM73.8839 34.039C74.2116 34.1262 74.4064 34.4626 74.3191 34.7902L73.3437 38.4514C73.2564 38.7791 72.9201 38.9739 72.5924 38.8866C72.2648 38.7993 72.07 38.463 72.1573 38.1354L73.1327 34.4741C73.22 34.1465 73.5563 33.9517 73.8839 34.039ZM71.9331 41.3614C72.2607 41.4487 72.4556 41.785 72.3683 42.1127L71.3929 45.7739C71.3056 46.1015 70.9692 46.2963 70.6416 46.2091C70.314 46.1218 70.1192 45.7854 70.2064 45.4578L71.1819 41.7966C71.2691 41.469 71.6055 41.2741 71.9331 41.3614ZM69.9823 48.6839C70.3099 48.7712 70.5047 49.1075 70.4174 49.4351L70.2284 50.1448L70.9434 49.8944C71.2634 49.7823 71.6136 49.9509 71.7257 50.2708C71.8378 50.5908 71.6692 50.9411 71.3493 51.0532L69.5395 51.6871C69.3248 51.7623 69.0862 51.7126 68.9194 51.5581C68.7525 51.4035 68.6848 51.1694 68.7433 50.9496L69.231 49.119C69.3183 48.7914 69.6546 48.5966 69.9823 48.6839ZM74.1865 49.4089C74.0744 49.0889 74.243 48.7387 74.563 48.6266L78.1826 47.3588C78.5025 47.2467 78.8528 47.4152 78.9649 47.7352C79.077 48.0552 78.9084 48.4055 78.5884 48.5176L74.9688 49.7854C74.6489 49.8974 74.2986 49.7289 74.1865 49.4089ZM81.4257 46.8733C81.3136 46.5533 81.4822 46.203 81.8022 46.091L85.4217 44.8232C85.7417 44.7111 86.092 44.8796 86.2041 45.1996C86.3162 45.5196 86.1476 45.8699 85.8276 45.9819L82.208 47.2497C81.888 47.3618 81.5378 47.1933 81.4257 46.8733ZM88.6649 44.3377C88.5528 44.0177 88.7213 43.6674 89.0413 43.5554L92.6609 42.2875C92.9809 42.1755 93.3312 42.344 93.4433 42.664C93.5553 42.984 93.3868 43.3342 93.0668 43.4463L89.4472 44.7141C89.1272 44.8262 88.777 44.6577 88.6649 44.3377ZM95.9041 41.8021C95.792 41.4821 95.9605 41.1318 96.2805 41.0197L98.0903 40.3858C98.4103 40.2737 98.7606 40.4423 98.8726 40.7623C98.9847 41.0823 98.8162 41.4325 98.4962 41.5446L96.6864 42.1785C96.3664 42.2906 96.0161 42.122 95.9041 41.8021Z" fill="black"/>
<path d="M105.484 46.7121L78.0723 9.23676L147.962 27.9636L105.484 46.7121Z" fill="#FE6D44"/>
<path d="M105.484 46.7121L78.0723 9.23676L147.962 27.9636L105.484 46.7121Z" fill="#FCFAF9" fill-opacity="0.25"/>
<path fill-rule="evenodd" clip-rule="evenodd" d="M145.221 26.1733C145.377 26.5258 145.217 26.9376 144.865 27.0932L143.332 27.7695C142.98 27.9251 142.568 27.7654 142.412 27.413C142.257 27.0605 142.417 26.6486 142.769 26.4931L144.301 25.8168C144.654 25.6612 145.066 25.8208 145.221 26.1733ZM81.3401 9.05645C81.6511 8.82899 82.0876 8.89668 82.315 9.20765L83.3038 10.5594C83.5313 10.8704 83.4636 11.3069 83.1526 11.5344C82.8417 11.7618 82.4052 11.6941 82.1777 11.3832L81.1889 10.0314C80.9614 9.7204 81.0291 9.28392 81.3401 9.05645ZM140.389 28.3062C140.544 28.6587 140.385 29.0705 140.032 29.2261L136.968 30.5787C136.615 30.7342 136.204 30.5746 136.048 30.2221C135.892 29.8697 136.052 29.4578 136.404 29.3022L139.469 27.9497C139.821 27.7941 140.233 27.9537 140.389 28.3062ZM84.4586 13.3198C84.7696 13.0923 85.2061 13.16 85.4335 13.471L87.4111 16.1745C87.6386 16.4855 87.5709 16.922 87.2599 17.1494C86.9489 17.3769 86.5124 17.3092 86.285 16.9982L84.3074 14.2947C84.0799 13.9837 84.1476 13.5472 84.4586 13.3198ZM134.024 31.1154C134.18 31.4678 134.02 31.8797 133.668 32.0353L130.603 33.3878C130.251 33.5434 129.839 33.3838 129.683 33.0313C129.528 32.6788 129.687 32.267 130.04 32.1114L133.104 30.7588C133.457 30.6033 133.869 30.7629 134.024 31.1154ZM88.5659 18.9348C88.8768 18.7074 89.3133 18.7751 89.5408 19.086L91.5184 21.7896C91.7458 22.1006 91.6781 22.5371 91.3672 22.7645C91.0562 22.992 90.6197 22.9243 90.3922 22.6133L88.4147 19.9098C88.1872 19.5988 88.2549 19.1623 88.5659 18.9348ZM127.66 33.9245C127.815 34.277 127.656 34.6889 127.303 34.8444L124.239 36.197C123.886 36.3526 123.474 36.193 123.319 35.8405C123.163 35.488 123.323 35.0762 123.675 34.9206L126.74 33.568C127.092 33.4124 127.504 33.5721 127.66 33.9245ZM92.6731 24.5499C92.9841 24.3225 93.4206 24.3902 93.6481 24.7011L95.6256 27.4047C95.8531 27.7157 95.7854 28.1521 95.4744 28.3796C95.1635 28.6071 94.727 28.5394 94.4995 28.2284L92.5219 25.5248C92.2945 25.2139 92.3622 24.7774 92.6731 24.5499ZM121.295 36.7337C121.451 37.0862 121.291 37.498 120.939 37.6536L117.874 39.0062C117.522 39.1618 117.11 39.0021 116.954 38.6497C116.799 38.2972 116.958 37.8853 117.311 37.7298L120.375 36.3772C120.728 36.2216 121.14 36.3812 121.295 36.7337ZM96.7804 30.165C97.0914 29.9376 97.5279 30.0052 97.7553 30.3162L99.7329 33.0198C99.9604 33.3307 99.8927 33.7672 99.5817 33.9947C99.2707 34.2222 98.8343 34.1545 98.6068 33.8435L96.6292 31.1399C96.4018 30.829 96.4695 30.3925 96.7804 30.165ZM114.931 39.5429C115.086 39.8954 114.927 40.3072 114.574 40.4628L111.51 41.8153C111.157 41.9709 110.745 41.8113 110.59 41.4588C110.434 41.1064 110.594 40.6945 110.946 40.5389L114.011 39.1864C114.363 39.0308 114.775 39.1904 114.931 39.5429ZM100.888 35.7801C101.199 35.5526 101.635 35.6203 101.863 35.9313L103.84 38.6349C104.068 38.9458 104 39.3823 103.689 39.6098C103.378 39.8372 102.942 39.7695 102.714 39.4586L100.736 36.755C100.509 36.4441 100.577 36.0076 100.888 35.7801ZM104.995 41.3952C105.306 41.1677 105.742 41.2354 105.97 41.5464L106.627 42.4452L107.646 41.9955C107.999 41.84 108.41 41.9996 108.566 42.3521C108.722 42.7045 108.562 43.1164 108.21 43.272L106.677 43.9482C106.378 44.0806 106.026 43.9864 105.833 43.7219L104.844 42.3701C104.616 42.0591 104.684 41.6227 104.995 41.3952Z" fill="#1B1F21"/>
</g>
<path d="M104.134 182.86L20.041 272.378L209.587 245.827L104.134 182.86Z" fill="#FE6D44"/>
<path fill-rule="evenodd" clip-rule="evenodd" d="M192.639 240.477L188.17 241.103C187.31 241.223 186.711 242.018 186.831 242.877C186.952 243.737 187.746 244.336 188.606 244.216L193.075 243.59C193.935 243.469 194.534 242.675 194.414 241.815C194.293 240.955 193.499 240.356 192.639 240.477ZM174.761 242.981L165.822 244.233C164.962 244.354 164.363 245.148 164.483 246.008C164.604 246.867 165.398 247.467 166.258 247.346L175.197 246.094C176.057 245.974 176.656 245.179 176.535 244.319C176.415 243.46 175.62 242.861 174.761 242.981ZM152.413 246.111L143.474 247.364C142.614 247.484 142.015 248.279 142.135 249.138C142.256 249.998 143.05 250.597 143.91 250.477L152.849 249.224C153.708 249.104 154.308 248.31 154.187 247.45C154.067 246.59 153.272 245.991 152.413 246.111ZM130.065 249.242L121.125 250.494C120.266 250.615 119.667 251.409 119.787 252.269C119.907 253.128 120.702 253.727 121.562 253.607L130.501 252.355C131.36 252.234 131.96 251.44 131.839 250.58C131.719 249.721 130.924 249.121 130.065 249.242ZM107.717 252.372L98.7774 253.625C97.9178 253.745 97.3186 254.539 97.439 255.399C97.5594 256.259 98.3539 256.858 99.2135 256.738L108.153 255.485C109.012 255.365 109.612 254.57 109.491 253.711C109.371 252.851 108.576 252.252 107.717 252.372ZM85.3686 255.503L76.4294 256.755C75.5698 256.875 74.9705 257.67 75.0909 258.53C75.2113 259.389 76.0058 259.988 76.8654 259.868L85.8047 258.616C86.6643 258.495 87.2635 257.701 87.1431 256.841C87.0227 255.982 86.2282 255.382 85.3686 255.503ZM63.0205 258.633L54.0813 259.886C53.2217 260.006 52.6225 260.8 52.7429 261.66C52.8633 262.52 53.6578 263.119 54.5174 262.998L63.4566 261.746C64.3162 261.626 64.9155 260.831 64.7951 259.972C64.6746 259.112 63.8802 258.513 63.0205 258.633ZM40.6725 261.764L36.2029 262.39C35.3433 262.51 34.744 263.305 34.8644 264.164C34.9848 265.024 35.7793 265.623 36.6389 265.503L41.1085 264.877C41.9682 264.756 42.5674 263.962 42.447 263.102C42.3266 262.243 41.5321 261.643 40.6725 261.764Z" fill="#1B1F21"/>
<path d="M106.592 196.552L209.587 245.827L192.084 120.874L106.592 196.552Z" fill="#FE6D44"/>
<path d="M106.592 196.552L209.587 245.827L192.084 120.874L106.592 196.552Z" fill="#FCFAF9" fill-opacity="0.12"/>
<path fill-rule="evenodd" clip-rule="evenodd" d="M202.576 235.205C203.048 234.864 203.293 234.29 203.212 233.713L202.494 228.583C202.373 227.723 201.579 227.124 200.719 227.244C199.859 227.365 199.26 228.159 199.381 229.019L199.686 231.203L197.806 230.272C197.028 229.887 196.086 230.206 195.701 230.984C195.316 231.762 195.634 232.704 196.412 233.089L200.959 235.339C201.481 235.598 202.103 235.546 202.576 235.205ZM199.718 220.097C200.578 219.977 201.177 219.182 201.056 218.323L199.619 208.063C199.499 207.203 198.704 206.604 197.845 206.724C196.985 206.845 196.386 207.639 196.506 208.499L197.943 218.759C198.064 219.618 198.858 220.218 199.718 220.097ZM196.844 199.577C197.703 199.457 198.302 198.663 198.182 197.803L196.745 187.543C196.624 186.683 195.83 186.084 194.97 186.205C194.111 186.325 193.511 187.119 193.632 187.979L195.069 198.239C195.189 199.099 195.984 199.698 196.844 199.577ZM193.969 179.058C194.829 178.937 195.428 178.143 195.308 177.283L193.87 167.023C193.75 166.164 192.956 165.564 192.096 165.685C191.236 165.805 190.637 166.6 190.757 167.459L192.195 177.719C192.315 178.579 193.11 179.178 193.969 179.058ZM191.095 158.538C191.954 158.417 192.554 157.623 192.433 156.763L191.715 151.633C191.594 150.774 190.8 150.175 189.94 150.295C189.08 150.415 188.481 151.21 188.602 152.069L189.32 157.199C189.441 158.059 190.235 158.658 191.095 158.538ZM189.425 227.878C189.81 227.1 189.492 226.157 188.714 225.772L179.621 221.273C178.843 220.888 177.9 221.206 177.515 221.984C177.13 222.762 177.449 223.705 178.227 224.09L187.32 228.59C188.098 228.975 189.04 228.656 189.425 227.878ZM171.24 218.879C171.625 218.101 171.307 217.158 170.529 216.773L161.436 212.273C160.658 211.888 159.715 212.207 159.33 212.985C158.945 213.763 159.264 214.706 160.042 215.091L169.134 219.59C169.912 219.975 170.855 219.657 171.24 218.879ZM153.055 209.879C153.44 209.101 153.121 208.159 152.343 207.774L143.251 203.274C142.473 202.889 141.53 203.208 141.145 203.986C140.76 204.764 141.079 205.706 141.856 206.091L150.949 210.591C151.727 210.976 152.67 210.657 153.055 209.879ZM134.87 200.88C135.255 200.102 134.936 199.159 134.158 198.774L129.612 196.525C128.834 196.14 127.891 196.458 127.506 197.236C127.121 198.014 127.44 198.957 128.218 199.342L132.764 201.592C133.542 201.977 134.485 201.658 134.87 200.88Z" fill="#1B1F21"/>
<path d="M105.533 196.701L20.041 272.378L2.53786 147.426L105.533 196.701Z" fill="#FE6D44"/>
<path d="M105.533 196.701L20.041 272.378L2.53786 147.426L105.533 196.701Z" fill="#FCFAF9" fill-opacity="0.12"/>
<path fill-rule="evenodd" clip-rule="evenodd" d="M10.228 157.626C11.0874 157.504 11.8827 158.102 12.0044 158.962L12.7067 163.923C12.8283 164.783 12.2302 165.578 11.3708 165.7C10.5113 165.822 9.71597 165.223 9.59433 164.364L8.89205 159.402C8.77041 158.543 9.36852 157.747 10.228 157.626ZM12.3348 172.511C13.1943 172.39 13.9896 172.988 14.1112 173.847L15.5158 183.771C15.6375 184.631 15.0393 185.426 14.1799 185.548C13.3204 185.669 12.5251 185.071 12.4035 184.212L10.9989 174.288C10.8773 173.428 11.4754 172.633 12.3348 172.511ZM15.144 192.359C16.0034 192.237 16.7987 192.835 16.9204 193.695L18.3249 203.619C18.4466 204.478 17.8485 205.273 16.989 205.395C16.1296 205.517 15.3342 204.919 15.2126 204.059L13.808 194.135C13.6864 193.276 14.2845 192.481 15.144 192.359ZM17.9531 212.207C18.8125 212.085 19.6079 212.683 19.7295 213.543L21.1341 223.466C21.2557 224.326 20.6576 225.121 19.7982 225.243C18.9387 225.364 18.1434 224.766 18.0217 223.907L16.6172 213.983C16.4955 213.124 17.0936 212.328 17.9531 212.207ZM20.7622 232.054C21.6217 231.933 22.417 232.531 22.5387 233.39L23.9432 243.314C24.0649 244.173 23.4668 244.969 22.6073 245.09C21.7479 245.212 20.9525 244.614 20.8309 243.754L19.4263 233.831C19.3047 232.971 19.9028 232.176 20.7622 232.054ZM23.5714 251.902C24.4308 251.78 25.2261 252.378 25.3478 253.238L25.6339 255.259L27.1898 253.845C27.832 253.261 28.826 253.308 29.4099 253.95C29.9939 254.592 29.9466 255.586 29.3044 256.17L25.5512 259.583C25.1204 259.974 24.5084 260.096 23.9607 259.898C23.4129 259.701 23.0193 259.217 22.9377 258.64L22.2355 253.678C22.1138 252.819 22.7119 252.023 23.5714 251.902ZM34.5905 249.24C34.0066 248.598 34.0538 247.604 34.6961 247.02L42.2024 240.195C42.8446 239.611 43.8386 239.658 44.4226 240.3C45.0065 240.943 44.9592 241.937 44.317 242.521L36.8107 249.345C36.1684 249.929 35.1744 249.882 34.5905 249.24ZM49.6031 235.59C49.0192 234.948 49.0665 233.954 49.7087 233.37L57.215 226.545C57.8573 225.961 58.8513 226.009 59.4352 226.651C60.0191 227.293 59.9719 228.287 59.3296 228.871L51.8233 235.696C51.1811 236.28 50.1871 236.232 49.6031 235.59ZM64.6158 221.941C64.0318 221.298 64.0791 220.304 64.7213 219.72L72.2277 212.896C72.8699 212.312 73.8639 212.359 74.4478 213.001C75.0318 213.643 74.9845 214.637 74.3423 215.221L66.8359 222.046C66.1937 222.63 65.1997 222.583 64.6158 221.941ZM79.6284 208.291C79.0445 207.649 79.0917 206.655 79.734 206.071L83.4871 202.658C84.1294 202.074 85.1234 202.122 85.7073 202.764C86.2912 203.406 86.244 204.4 85.6017 204.984L81.8486 208.397C81.2063 208.98 80.2123 208.933 79.6284 208.291Z" fill="#1B1F21"/>
<path d="M107.991 210.392L2.53791 147.425L192.084 120.874L107.991 210.392Z" fill="#FE6D44"/>
<path d="M107.991 210.392L2.53791 147.425L192.084 120.874L107.991 210.392Z" fill="#FCFAF9" fill-opacity="0.25"/>
<path fill-rule="evenodd" clip-rule="evenodd" d="M183.522 119.389C184.241 120.064 184.276 121.194 183.601 121.913L180.568 125.142C179.892 125.861 178.762 125.897 178.043 125.221C177.324 124.546 177.289 123.416 177.964 122.697L180.998 119.468C181.673 118.749 182.803 118.713 183.522 119.389ZM10.3625 143.645C10.8682 142.798 11.9647 142.521 12.8116 143.027L16.6154 145.298C17.4623 145.804 17.7389 146.9 17.2332 147.747C16.7275 148.594 15.6311 148.871 14.7842 148.365L10.9803 146.094C10.1334 145.588 9.85684 144.491 10.3625 143.645ZM173.955 129.573C174.674 130.248 174.71 131.378 174.034 132.097L167.968 138.555C167.292 139.274 166.162 139.309 165.443 138.634C164.724 137.959 164.689 136.828 165.364 136.109L171.431 129.651C172.106 128.933 173.236 128.897 173.955 129.573ZM22.3592 150.808C22.8649 149.961 23.9614 149.684 24.8082 150.19L32.4159 154.733C33.2628 155.238 33.5394 156.335 33.0337 157.182C32.528 158.029 31.4315 158.305 30.5846 157.799L22.977 153.257C22.1301 152.751 21.8535 151.655 22.3592 150.808ZM161.355 142.985C162.074 143.661 162.11 144.791 161.434 145.51L155.368 151.968C154.692 152.687 153.562 152.722 152.843 152.047C152.124 151.371 152.089 150.241 152.764 149.522L158.831 143.064C159.506 142.345 160.636 142.31 161.355 142.985ZM38.1597 160.242C38.6654 159.395 39.7618 159.119 40.6087 159.625L48.2164 164.167C49.0633 164.673 49.3399 165.769 48.8342 166.616C48.3285 167.463 47.232 167.74 46.3851 167.234L38.7775 162.691C37.9306 162.186 37.654 161.089 38.1597 160.242ZM148.755 156.398C149.474 157.074 149.509 158.204 148.834 158.923L142.767 165.381C142.092 166.1 140.962 166.135 140.243 165.46C139.524 164.784 139.489 163.654 140.164 162.935L146.231 156.477C146.906 155.758 148.036 155.723 148.755 156.398ZM53.9602 169.677C54.4658 168.83 55.5623 168.553 56.4092 169.059L64.0169 173.602C64.8638 174.107 65.1404 175.204 64.6347 176.051C64.129 176.898 63.0325 177.174 62.1856 176.669L54.578 172.126C53.7311 171.62 53.4545 170.524 53.9602 169.677ZM136.155 169.811C136.874 170.486 136.909 171.617 136.234 172.336L130.167 178.794C129.492 179.513 128.362 179.548 127.643 178.872C126.924 178.197 126.889 177.067 127.564 176.348L133.631 169.89C134.306 169.171 135.436 169.136 136.155 169.811ZM69.7607 179.111C70.2663 178.265 71.3628 177.988 72.2097 178.494L79.8173 183.036C80.6642 183.542 80.9408 184.638 80.4352 185.485C79.9295 186.332 78.833 186.609 77.9861 186.103L70.3785 181.561C69.5316 181.055 69.255 179.958 69.7607 179.111ZM123.555 183.224C124.274 183.899 124.309 185.03 123.634 185.748L117.567 192.206C116.892 192.925 115.762 192.961 115.043 192.285C114.324 191.61 114.289 190.48 114.964 189.761L121.031 183.303C121.706 182.584 122.836 182.549 123.555 183.224ZM85.5611 188.546C86.0668 187.699 87.1633 187.422 88.0102 187.928L95.6178 192.471C96.4647 192.976 96.7413 194.073 96.2356 194.92C95.73 195.767 94.6335 196.043 93.7866 195.538L86.179 190.995C85.3321 190.489 85.0555 189.393 85.5611 188.546ZM101.362 197.981C101.867 197.134 102.964 196.857 103.811 197.363L106.381 198.897L108.431 196.716C109.106 195.997 110.236 195.961 110.955 196.637C111.674 197.312 111.709 198.442 111.034 199.161L108.001 202.39C107.426 203.002 106.504 203.131 105.783 202.701L101.979 200.43C101.133 199.924 100.856 198.827 101.362 197.981Z" fill="#1B1F21"/>
<circle cx="189.366" cy="124.773" r="21.7783" transform="rotate(-7.974 189.366 124.773)" fill="#57ACBC"/>
<path d="M197.968 128.097L198.553 132.275L184.175 134.289L183.59 130.111L188.105 129.478L186.924 121.041L182.408 121.674L181.967 118.527C183.194 118.281 184.535 117.771 185.99 116.995C187.441 116.202 188.688 115.354 189.729 114.452L191.585 114.192L193.619 128.706L197.968 128.097Z" fill="#FFFFFE"/>
<defs>
<filter id="filter0_f_4028_2397" x="57.7272" y="0.921875" width="98.2345" height="81.1137" filterUnits="userSpaceOnUse" color-interpolation-filters="sRGB">
<feFlood flood-opacity="0" result="BackgroundImageFix"/>
<feBlend mode="normal" in="SourceGraphic" in2="BackgroundImageFix" result="shape"/>
<feGaussianBlur stdDeviation="4" result="effect1_foregroundBlur_4028_2397"/>
</filter>
</defs>
</svg>
