<?xml version="1.0" encoding="UTF-8"?>
<svg xmlns="http://www.w3.org/2000/svg" xmlns:xlink="http://www.w3.org/1999/xlink" width="472px" height="265px" viewBox="0 0 471 265" version="1.1">
<g id="surface1">
<path style=" stroke:none;fill-rule:nonzero;fill:rgb(0%,0%,0%);fill-opacity:1;" d="M 0 83.113281 C 0 37.210938 38.035156 0 84.453125 0 C 111.996094 0 136.585938 13.097656 152.03125 33.339844 C 173.648438 12.699219 203.074219 0 235.5 0 C 267.882812 0 297.273438 12.664062 318.882812 33.257812 C 334.21875 13.0625 358.636719 0 386.136719 0 L 471 0 L 471 181.886719 C 471 227.789062 432.964844 265 386.546875 265 C 359.003906 265 334.414062 251.902344 318.96875 231.660156 C 297.351562 252.300781 267.925781 265 235.5 265 C 203.117188 265 173.726562 252.335938 152.117188 231.742188 C 136.78125 251.9375 112.363281 265 84.863281 265 L 0 265 Z M 0 83.113281 "/>
</g>
</svg>
