<svg width="561" height="640" viewBox="0 0 561 640" fill="none" xmlns="http://www.w3.org/2000/svg">
<path fill-rule="evenodd" clip-rule="evenodd" d="M484.827 208.646C479.134 199.996 473.208 191.372 467.117 182.829C465.273 180.242 466.074 176.515 468.908 174.504C471.741 172.493 475.532 172.96 477.377 175.546C483.538 184.188 489.538 192.92 495.309 201.687C497.055 204.341 496.124 208.05 493.23 209.971C490.335 211.893 486.573 211.299 484.827 208.646ZM457.467 159.001C454.688 161.086 450.875 160.727 448.95 158.2C442.564 149.818 436.078 141.573 429.561 133.521C427.562 131.051 428.151 127.304 430.877 125.152C433.603 122.999 437.433 123.257 439.433 125.728C446.011 133.856 452.561 142.182 459.012 150.649C460.937 153.177 460.246 156.916 457.467 159.001ZM503.495 226.296C506.457 224.482 510.179 225.224 511.808 227.952C517.358 237.249 522.577 246.531 527.384 255.733C528.857 258.553 527.584 262.191 524.541 263.86C521.498 265.53 517.837 264.597 516.365 261.778C511.66 252.772 506.54 243.665 501.081 234.52C499.452 231.791 500.533 228.109 503.495 226.296ZM418.542 110.331C415.867 112.544 412.023 112.38 409.956 109.964C402.98 101.81 396.049 93.942 389.247 86.4296C387.113 84.0715 387.507 80.316 390.128 78.0414C392.749 75.7669 396.604 75.8346 398.739 78.1926C405.607 85.778 412.603 93.7198 419.644 101.95C421.711 104.366 421.217 108.118 418.542 110.331ZM532.885 281.247C536.021 279.774 539.586 280.952 540.848 283.878C545.277 294.148 549.063 304.25 552.073 314.081C553.01 317.142 551.137 320.571 547.889 321.74C544.641 322.908 541.248 321.374 540.311 318.314C537.434 308.917 533.791 299.186 529.491 289.213C528.229 286.287 529.748 282.72 532.885 281.247ZM376.929 63.882C374.368 66.2211 370.503 66.2576 368.296 63.9635C360.539 55.8991 353.104 48.4607 346.142 41.7668C343.845 39.558 343.993 35.8058 346.474 33.386C348.954 30.9661 352.826 30.795 355.124 33.0038C362.194 39.8022 369.726 47.3388 377.57 55.4929C379.777 57.787 379.49 61.5429 376.929 63.882ZM332.12 20.2846C329.782 22.8317 325.907 23.2261 323.466 21.1655C319.001 17.3962 314.982 14.2163 311.476 11.6705C308.882 9.78711 308.537 6.08704 310.706 3.40621C312.874 0.725382 316.734 0.0789706 319.328 1.96241C323.101 4.70246 327.331 8.05426 331.936 11.9414C334.376 14.0021 334.459 17.7374 332.12 20.2846ZM552.208 340.789C555.564 340.127 558.612 342.191 559.016 345.4C560.519 357.358 560.461 368.81 558.438 379.474C557.819 382.734 554.623 385.111 551.3 384.784C547.977 384.456 545.784 381.548 546.402 378.288C548.146 369.1 548.256 358.888 546.861 347.798C546.458 344.589 548.851 341.451 552.208 340.789ZM543.003 403.541C545.589 405.434 545.92 409.136 543.743 411.811C539.859 416.581 535.262 420.921 529.928 424.793C524.91 428.435 519.75 431.725 514.465 434.678C513.525 435.204 512.524 435.479 511.544 435.526C515.256 444.254 518.545 452.933 521.359 461.496C522.357 464.534 520.549 467.991 517.319 469.217C514.089 470.444 510.661 468.975 509.663 465.937C506.267 455.601 502.135 445.04 497.358 434.383C496.055 431.477 497.527 427.895 500.646 426.383C502.737 425.37 505.036 425.544 506.717 426.643C507.289 425.798 508.072 425.061 509.037 424.522C513.853 421.83 518.556 418.831 523.131 415.511C527.539 412.311 531.264 408.781 534.378 404.956C536.555 402.282 540.417 401.648 543.003 403.541ZM467.261 367.328C470.168 365.425 473.923 366.044 475.649 368.711C482.009 378.535 487.976 388.504 493.478 398.517C495.009 401.303 493.807 404.959 490.793 406.683C487.779 408.406 484.095 407.544 482.564 404.757C477.189 394.975 471.351 385.224 465.124 375.603C463.398 372.936 464.354 369.231 467.261 367.328ZM454.695 349.255C451.897 351.314 448.091 350.918 446.194 348.37C439.411 339.261 432.323 330.374 424.998 321.804C422.933 319.387 423.428 315.635 426.104 313.423C428.78 311.211 432.624 311.377 434.689 313.794C442.169 322.545 449.404 331.616 456.326 340.912C458.223 343.46 457.493 347.195 454.695 349.255ZM411.237 297.183C408.699 299.545 404.832 299.62 402.599 297.35C394.475 289.091 386.172 281.291 377.773 274.057C375.353 271.973 375.306 268.234 377.667 265.706C380.028 263.178 383.904 262.818 386.323 264.902C394.96 272.341 403.475 280.342 411.79 288.795C414.023 291.065 413.776 294.82 411.237 297.183ZM360.189 252.027C358.064 254.738 354.21 255.445 351.581 253.606C341.835 246.787 332.099 240.873 322.494 236.008C319.606 234.545 318.689 230.983 320.447 228.051C322.204 225.119 325.969 223.929 328.857 225.391C338.993 230.525 349.173 236.718 359.277 243.787C361.906 245.626 362.314 249.315 360.189 252.027ZM522.907 490.766C526.24 489.949 529.401 491.859 529.967 495.032C532.206 507.583 533.16 519.723 532.594 531.186C532.432 534.46 529.563 537.21 526.187 537.327C522.81 537.445 520.204 534.886 520.366 531.612C520.882 521.17 520.02 509.891 517.897 497.991C517.332 494.818 519.575 491.583 522.907 490.766ZM486.338 440.986C487.067 444.115 484.982 447.439 481.681 448.411C470.219 451.785 458.447 453.909 446.531 454.931C443.15 455.22 440.397 452.81 440.381 449.546C440.365 446.283 443.093 443.402 446.473 443.113C457.6 442.159 468.501 440.183 479.042 437.08C482.343 436.108 485.609 437.857 486.338 440.986ZM299.415 219.769C298.287 222.938 294.789 224.834 291.602 224.003C279.8 220.925 268.591 219.894 258.177 221.078C254.799 221.463 251.967 219.136 251.854 215.883C251.74 212.629 254.387 209.68 257.765 209.296C270.034 207.901 282.785 209.161 295.688 212.526C298.875 213.357 300.544 216.6 299.415 219.769ZM521.288 559.903C524.361 561.012 525.712 564.411 524.305 567.494C521.514 573.609 517.985 579.327 513.657 584.553C509.48 589.598 505.08 594.324 500.464 598.721C497.954 601.111 494.084 601.233 491.819 598.993C489.555 596.753 489.754 592.999 492.264 590.608C496.478 586.594 500.514 582.261 504.363 577.612C507.899 573.342 510.826 568.62 513.174 563.476C514.581 560.393 518.214 558.793 521.288 559.903ZM419.355 449.54C418.805 452.806 415.655 455.242 412.319 454.981C400.956 454.093 389.579 452.347 378.318 449.856C375.092 449.143 373.295 445.972 374.305 442.775C375.315 439.577 378.749 437.563 381.975 438.276C392.738 440.656 403.558 442.314 414.312 443.154C417.647 443.415 419.905 446.274 419.355 449.54ZM229.482 224.305C231.323 226.894 230.516 230.621 227.68 232.628C223.243 235.77 218.972 239.595 214.906 244.177C211.235 248.314 208.33 252.619 206.116 257.054C204.598 260.094 200.919 261.569 197.899 260.348C194.878 259.128 193.66 255.673 195.177 252.633C197.922 247.136 201.49 241.869 205.913 236.885C210.625 231.576 215.669 227.038 221.015 223.252C223.851 221.245 227.642 221.716 229.482 224.305ZM354.572 437.136C353.199 440.231 349.581 441.868 346.492 440.792C335.925 437.112 325.562 432.834 315.515 428.055C312.586 426.661 311.581 423.128 313.27 420.163C314.958 417.197 318.701 415.923 321.63 417.316C331.323 421.927 341.305 426.047 351.466 429.585C354.555 430.661 355.946 434.042 354.572 437.136ZM472.706 613.111C474.191 615.923 472.932 619.566 469.895 621.246C458.658 627.461 446.62 632.16 433.86 635.293C430.527 636.111 427.366 634.202 426.799 631.03C426.231 627.857 428.473 624.622 431.806 623.804C443.448 620.946 454.365 616.677 464.519 611.06C467.557 609.38 471.222 610.298 472.706 613.111ZM295.514 410.571C293.55 413.387 289.727 414.314 286.976 412.64C277.42 406.828 268.301 400.582 259.74 394.003C257.202 392.052 256.954 388.337 259.187 385.705C261.42 383.072 265.288 382.519 267.826 384.47C276.071 390.806 284.865 396.83 294.089 402.441C296.84 404.114 297.478 407.754 295.514 410.571ZM194.075 280.677C197.45 280.206 200.351 282.453 200.555 285.695C201.145 295.066 203.792 304.9 208.323 314.943C209.632 317.846 208.168 321.43 205.051 322.948C201.935 324.466 198.347 323.343 197.037 320.44C192.09 309.475 189.025 298.361 188.335 287.401C188.131 284.159 190.701 281.148 194.075 280.677ZM244.101 372.671C241.601 375.071 237.73 375.209 235.454 372.98C227.33 365.018 220.032 356.753 213.74 348.32C211.84 345.773 212.567 342.038 215.363 339.976C218.159 337.915 221.966 338.307 223.866 340.854C229.801 348.808 236.732 356.667 244.508 364.287C246.784 366.517 246.601 370.27 244.101 372.671ZM403.65 633.889C403.424 637.165 400.507 639.866 397.134 639.922C385.318 640.117 373.058 639.169 360.397 637.062C357.123 636.517 355.148 633.456 355.988 630.225C356.827 626.995 360.163 624.818 363.437 625.363C375.438 627.36 386.952 628.241 397.951 628.059C401.324 628.003 403.876 630.614 403.65 633.889ZM334.05 624.904C332.776 628.031 329.205 629.775 326.074 628.799C315.214 625.413 304.102 621.248 292.758 616.29C289.779 614.988 288.66 611.495 290.258 608.489C291.856 605.482 295.567 604.1 298.546 605.402C309.54 610.207 320.26 614.223 330.687 617.473C333.819 618.45 335.324 621.776 334.05 624.904ZM270.371 598.707C268.536 601.598 264.746 602.691 261.907 601.149C252.03 595.784 241.995 589.847 231.815 583.331C229.106 581.598 228.55 577.938 230.573 575.158C232.596 572.378 236.431 571.53 239.14 573.264C249.113 579.647 258.922 585.449 268.554 590.681C271.393 592.223 272.206 595.817 270.371 598.707ZM212.466 562.776C210.299 565.458 206.439 566.106 203.844 564.223C194.79 557.653 185.633 550.639 176.378 543.175C173.889 541.168 173.726 537.441 176.014 534.852C178.301 532.263 182.173 531.791 184.662 533.798C193.782 541.153 202.794 548.055 211.693 554.513C214.287 556.395 214.633 560.095 212.466 562.776ZM159.346 520.786C156.961 523.294 153.085 523.617 150.689 521.508C142.293 514.119 133.824 506.367 125.288 498.248C122.979 496.051 123.108 492.3 125.577 489.869C128.045 487.438 131.919 487.248 134.228 489.445C142.669 497.474 151.036 505.133 159.325 512.428C161.721 514.536 161.73 518.278 159.346 520.786ZM110.013 474.545C107.474 476.907 103.607 476.981 101.375 474.71C93.5616 466.763 85.6975 458.512 77.786 449.954C75.6261 447.618 75.9834 443.862 78.584 441.565C81.1845 439.268 85.0436 439.3 87.2035 441.636C95.0439 450.117 102.833 458.289 110.568 466.157C112.8 468.427 112.552 472.183 110.013 474.545ZM64.0451 425.394C61.3916 427.632 57.5426 427.507 55.4481 425.114C48.089 416.707 40.6926 408.038 33.2619 399.103C31.2294 396.659 31.7717 392.909 34.473 390.727C37.1744 388.545 41.0119 388.757 43.0443 391.201C50.4196 400.069 57.7582 408.671 65.0572 417.009C67.1517 419.402 66.6986 423.156 64.0451 425.394ZM20.7599 373.843C18.017 375.974 14.1916 375.684 12.2157 373.195C8.67686 368.738 5.13099 364.221 1.57835 359.644C-0.369789 357.134 0.290602 353.392 3.05334 351.286C5.81607 349.18 9.63501 349.508 11.5831 352.018C15.1123 356.565 18.6344 361.052 22.1488 365.479C24.1247 367.967 23.5029 371.712 20.7599 373.843Z" fill="#434343"/>
</svg>
